# xmcd
#
# Track frame offsets:
#	150
#	11989
#	25158
#	37164
#	49898
#	62474
#	74768
#	85906
#	96750
#	105852
#
# Disc length: 1556 seconds
#
# Revision: 1
# Processed by: cddbd v1.5.2PL0 Copyright (c) Steve Scherf et al.
# Submitted via: audiograbber 1.83.01
#
DISCID=8206120a
DTITLE=Johnny Paycheck - The Outlaw
DYEAR=1978
DGENRE=Country
TTITLE0=Down On The Corner At A Bar Called Kelly's
TTITLE1=I've Got Someone To Kill
TTITLE2=There's No Easy Way To Die
TTITLE3=The Ballad Of Frisco Bay
TTITLE4=Bayou Bum
TTITLE5=If I'm Gonna Sink
TTITLE6=The Loser
TTITLE7=California Dreams
TTITLE8=The Johnson's Of Turkey Ridge
TTITLE9=I'm A Coward
EXTD=
EXTT0=
EXTT1=
EXTT2=
EXTT3=
EXTT4=
EXTT5=
EXTT6=
EXTT7=
EXTT8=
EXTT9=
PLAYORDER=
